<svg width="24" height="24" viewBox="0 0 24 24" fill="none" xmlns="http://www.w3.org/2000/svg" stroke="#ffffff"
     stroke-width="2" stroke-linecap="round" stroke-linejoin="round">
    <path d="M10 14L6 18"/>
    <path d="M9 12L10 14"/>
    <path d="M10 14L12 15"/>
    <path d="M10 9L9 12"/>
    <path d="M15 14L12 15"/>
    <path d="M15 14L16 11"/>
    <path d="M10 9L13 8"/>
    <path d="M15.4158 3.67083C18.6925 5.01603 21 8.23854 21 12C21 15.0249 19.5077 17.7012 17.2192 19.333M13.5161 20.8728C13.0232 20.9565 12.5167 21 12 21C7.02944 21 3 16.9706 3 12C3 7.20741 6.74606 3.28975 11.4699 3.01536"/>
</svg>
